<?xml version="1.0" encoding="utf-8"?>
<!-- Generator: Adobe Illustrator 21.0.0, SVG Export Plug-In . SVG Version: 6.00 Build 0)  -->
<svg version="1.2" baseProfile="tiny" xmlns="http://www.w3.org/2000/svg" xmlns:xlink="http://www.w3.org/1999/xlink" x="0px"
	 y="0px" viewBox="0 0 1024 1024" xml:space="preserve">
<g>
	<path fill="rgb(134, 144, 155)" d="M512,137c-212.2,0-384,172.1-384,384.5c0,170.1,109.9,313.8,262.6,364.8c19.2,3.4,26.4-8.2,26.4-18.3
		c0-9.1-0.5-39.4-0.5-71.6C320,814.2,295,772.8,287.4,751.2c-4.3-11.1-23-45.2-39.4-54.3c-13.4-7.2-32.6-25-0.5-25.5
		c30.2-0.5,51.8,27.9,59,39.4c34.6,58.2,89.8,41.8,111.8,31.7c3.4-25,13.4-41.8,24.5-51.4c-85.4-9.6-174.7-42.8-174.7-189.8
		c0-41.8,14.9-76.4,39.4-103.3c-3.8-9.6-17.3-49,3.8-101.9c0,0,32.2-10.1,105.6,39.4c30.7-8.7,63.4-13,96-13s65.3,4.3,96,13
		c73.4-50,105.6-39.4,105.6-39.4c21.1,52.9,7.7,92.3,3.8,101.9c24.5,26.9,39.4,61,39.4,103.3c0,147.5-89.8,180.2-175.2,189.8
		c13.9,12,25.9,35.1,25.9,71.1c0,51.4-0.5,92.8-0.5,105.7c0,10.1,7.2,22.1,26.4,18.3C790.7,833.4,896,686.7,896,521.5
		C896,309.1,724.2,137,512,137z"/>
</g>
</svg>
