<?xml version="1.0" encoding="utf-8"?>
<!-- Generator: Adobe Illustrator 21.0.0, SVG Export Plug-In . SVG Version: 6.00 Build 0)  -->
<svg version="1.2" baseProfile="tiny" xmlns="http://www.w3.org/2000/svg" xmlns:xlink="http://www.w3.org/1999/xlink" x="0px"
	 y="0px" viewBox="0 0 1024 1024" xml:space="preserve">
<g>
	<path fill="rgb(255, 107, 129)" d="M896,512.2c0,101.5,0,203,0,304.5c0,47.6-31.8,79.3-79.5,79.3c-203,0-406,0-609,0
		c-47.8,0-79.5-31.7-79.5-79.3c0-203.2,0-406.5,0-609.7c0-47.1,31.9-79,79.1-79c203.2,0,406.5,0,609.7,0c47.2,0,79.1,31.8,79.1,78.9
		C896,308.7,896,410.4,896,512.2z M308.7,447.5c15.5-0.5,21.6,3.5,23.9,12.8c2,8.2-2.2,15.3-12,19.9c-3.1,1.5-6.5,2.6-9.9,3.5
		c-11.8,3.1-23.7,6.1-35.6,8.9c-33.8,8-67.8,14.8-101.4,23.8c-12.1,3.2-19.4,11.1-20.2,21.3c-1.4,17.3,13.1,28.5,31.7,24.3
		c48-10.8,95.9-21.8,143.9-32.6c9.5-2.1,18.8-5.3,28.6-5.4c9.4-0.1,16.6,5.1,18.9,13c2.6,8.7-0.6,16.4-9,21.8
		c-3.4,2.2-7.1,3.5-11,4.6c-33,9-66,18-99,27.1c-14.1,3.9-21.5,13.9-19.4,26c2.5,14.6,15,22.4,30.3,18.7
		c19.4-4.6,38.5-10.7,58.2-14.1c8.1-1.4,15.6,2.9,19.1,10.1c3.4,7,1.9,14.7-3.9,20.6c-4.9,5.1-11.4,7.1-17.9,8.8
		c-38.2,10-76.3,20-114.5,29.9c-7.8,2-14.1,6.2-19.2,12.4c-6.4,7.8-6.5,16.9-0.2,24.7c6.8,8.5,16,11.1,26.2,8.6
		c13.6-3.3,27-7.3,40.5-11C376.9,692.1,497,659,617.2,625.9c24.3-6.7,48.7-13.2,72.9-20.1c14.1-4,21-16.1,17.2-28.6
		c-3.5-11.4-14.2-18-26.1-16.2c-9.4,1.3-18.2,5.8-27.9,5.1c-8.8-0.7-14.2-5.2-16.1-13.2c-1.6-7,1.8-13.9,9-18.1
		c5-2.9,10.5-4.7,16.1-6.1c55.3-13.6,110.6-27.1,165.9-40.7c8.2-2,16.5-4,24.6-6.6c12.9-4.1,19.5-15.7,16.5-27.9
		c-3.1-12.3-14.2-19.3-27.6-17.3c-2.5,0.4-4.9,1.1-7.3,1.7c-82.8,20.7-165.7,41.5-248.5,62.3c-4.9,1.2-9.8,1.9-14.8,1.5
		c-7.8-0.7-13-4.7-15.7-11.9c-2.8-7.3-1.2-13.7,4.3-19.2c4.7-4.6,10.6-6.5,16.6-8.1c29.9-8,59.9-15.9,89.8-23.9
		c11.6-3.1,23.3-5.9,34.6-9.8c11.5-3.9,17.3-15,14.9-26.2c-2.5-11.5-11.7-18.6-24.1-17.9c-3.9,0.2-7.9,1.2-11.7,2.1
		c-16.5,4.1-32.9,8.6-49.4,12.5c-10.5,2.5-19.4-2.6-22.8-12.2c-3.1-8.6,1.3-18.3,10.8-22.8c4.7-2.2,9.8-3.6,14.9-5
		c33.2-9.1,66.5-18.1,99.8-27c6-1.6,11.1-4.7,15.5-8.7c12.8-11.7,9.2-29.8-7.1-36.1c-6.1-2.4-12.2-2.1-18.4-0.3
		c-140.8,40.1-282.5,76.6-423.9,114c-23.7,6.2-47.4,12.3-70.9,19.1c-12.5,3.6-18.6,15-15.9,26.8c2.7,11.7,13.5,19.1,26,17.3
		c7.4-1.1,14.6-3.3,21.9-5C277.7,455,295.2,450.7,308.7,447.5z M758,684.5c0-29.7-24.1-53.9-53.8-54c-29.7-0.1-54.1,23.9-54.2,53.6
		c-0.2,30.1,24.1,54.5,54.2,54.4C733.9,738.4,758,714.2,758,684.5z"/>
</g>
</svg>
